<mxfile host="Electron" agent="Mozilla/5.0 (Windows NT 10.0; Win64; x64) AppleWebKit/537.36 (KHTML, like Gecko) draw.io/28.0.6 Chrome/138.0.7204.100 Electron/37.2.3 Safari/537.36" version="28.0.6">
  <diagram name="Page-1" id="J0jDcTdTuW3iA6Uvwu4c">
    <mxGraphModel dx="595" dy="358" grid="0" gridSize="10" guides="1" tooltips="1" connect="1" arrows="1" fold="1" page="1" pageScale="1" pageWidth="850" pageHeight="1100" background="#FFFFFF" math="0" shadow="0">
      <root>
        <mxCell id="0" />
        <mxCell id="1" parent="0" />
        <mxCell id="Pph7oQHx4fXSbqczSDpd-34" value=":AccessControl" style="shape=umlLifeline;perimeter=lifelinePerimeter;whiteSpace=wrap;html=1;container=1;dropTarget=0;collapsible=0;recursiveResize=0;outlineConnect=0;portConstraint=eastwest;newEdgeStyle={&quot;curved&quot;:0,&quot;rounded&quot;:0};fillColor=#eeeeee;strokeColor=#36393d;fontColor=light-dark(#000000,#000000);" parent="1" vertex="1">
          <mxGeometry x="578" y="65" width="100" height="600" as="geometry" />
        </mxCell>
        <mxCell id="Pph7oQHx4fXSbqczSDpd-35" value="" style="html=1;points=[[0,0,0,0,5],[0,1,0,0,-5],[1,0,0,0,5],[1,1,0,0,-5]];perimeter=orthogonalPerimeter;outlineConnect=0;targetShapes=umlLifeline;portConstraint=eastwest;newEdgeStyle={&quot;curved&quot;:0,&quot;rounded&quot;:0};fillColor=#eeeeee;strokeColor=#36393d;fontColor=light-dark(#000000,#000000);" parent="Pph7oQHx4fXSbqczSDpd-34" vertex="1">
          <mxGeometry x="44" y="98" width="13" height="51" as="geometry" />
        </mxCell>
        <mxCell id="Pph7oQHx4fXSbqczSDpd-2" value="" style="shape=umlLifeline;perimeter=lifelinePerimeter;whiteSpace=wrap;html=1;container=1;dropTarget=0;collapsible=0;recursiveResize=0;outlineConnect=0;portConstraint=eastwest;newEdgeStyle={&quot;curved&quot;:0,&quot;rounded&quot;:0};participant=umlActor;fillColor=#eeeeee;strokeColor=#36393d;fontColor=light-dark(#000000,#000000);" parent="1" vertex="1">
          <mxGeometry x="81.5" y="66" width="20" height="600" as="geometry" />
        </mxCell>
        <mxCell id="Pph7oQHx4fXSbqczSDpd-3" value=":CertificateNFT" style="shape=umlLifeline;perimeter=lifelinePerimeter;whiteSpace=wrap;html=1;container=1;dropTarget=0;collapsible=0;recursiveResize=0;outlineConnect=0;portConstraint=eastwest;newEdgeStyle={&quot;curved&quot;:0,&quot;rounded&quot;:0};fillColor=#eeeeee;strokeColor=#36393d;fontColor=light-dark(#000000,#000000);" parent="1" vertex="1">
          <mxGeometry x="292.5" y="65" width="100" height="600" as="geometry" />
        </mxCell>
        <mxCell id="Pph7oQHx4fXSbqczSDpd-10" value="" style="html=1;points=[[0,0,0,0,5],[0,1,0,0,-5],[1,0,0,0,5],[1,1,0,0,-5]];perimeter=orthogonalPerimeter;outlineConnect=0;targetShapes=umlLifeline;portConstraint=eastwest;newEdgeStyle={&quot;curved&quot;:0,&quot;rounded&quot;:0};fillColor=#eeeeee;strokeColor=#36393d;fontColor=light-dark(#000000,#000000);" parent="Pph7oQHx4fXSbqczSDpd-3" vertex="1">
          <mxGeometry x="42" y="74" width="13" height="490" as="geometry" />
        </mxCell>
        <mxCell id="Pph7oQHx4fXSbqczSDpd-13" value="" style="html=1;points=[[0,0,0,0,5],[0,1,0,0,-5],[1,0,0,0,5],[1,1,0,0,-5]];perimeter=orthogonalPerimeter;outlineConnect=0;targetShapes=umlLifeline;portConstraint=eastwest;newEdgeStyle={&quot;curved&quot;:0,&quot;rounded&quot;:0};fillColor=#eeeeee;strokeColor=#36393d;fontColor=light-dark(#000000,#000000);" parent="Pph7oQHx4fXSbqczSDpd-3" vertex="1">
          <mxGeometry x="49.5" y="264" width="10" height="40" as="geometry" />
        </mxCell>
        <mxCell id="Pph7oQHx4fXSbqczSDpd-14" value="checkIssuerStatus()" style="html=1;align=left;spacingLeft=2;endArrow=block;rounded=0;edgeStyle=orthogonalEdgeStyle;curved=0;rounded=0;fillColor=#eeeeee;strokeColor=#36393d;fontColor=light-dark(#000000,#000000);labelBackgroundColor=none;" parent="Pph7oQHx4fXSbqczSDpd-3" target="Pph7oQHx4fXSbqczSDpd-13" edge="1">
          <mxGeometry x="-0.0029" relative="1" as="geometry">
            <mxPoint x="54.5" y="252" as="sourcePoint" />
            <Array as="points">
              <mxPoint x="89.5" y="252" />
              <mxPoint x="89.5" y="270" />
            </Array>
            <mxPoint as="offset" />
          </mxGeometry>
        </mxCell>
        <mxCell id="Pph7oQHx4fXSbqczSDpd-11" value="issueCertificate(_recipient, _reName, cTitle)" style="html=1;verticalAlign=bottom;endArrow=block;curved=0;rounded=0;entryX=0;entryY=0;entryDx=0;entryDy=5;fillColor=#eeeeee;strokeColor=#36393d;fontColor=light-dark(#000000,#000000);labelBackgroundColor=none;" parent="1" source="Pph7oQHx4fXSbqczSDpd-2" target="Pph7oQHx4fXSbqczSDpd-10" edge="1">
          <mxGeometry x="-0.0021" relative="1" as="geometry">
            <mxPoint x="264.5" y="140" as="sourcePoint" />
            <mxPoint as="offset" />
          </mxGeometry>
        </mxCell>
        <mxCell id="Pph7oQHx4fXSbqczSDpd-16" value="alt" style="shape=umlFrame;whiteSpace=wrap;html=1;pointerEvents=0;width=32;height=26;fillColor=#eeeeee;strokeColor=#36393d;fontColor=light-dark(#000000,#000000);" parent="1" vertex="1">
          <mxGeometry x="53.5" y="377" width="720.5" height="260" as="geometry" />
        </mxCell>
        <mxCell id="Pph7oQHx4fXSbqczSDpd-17" value="" style="line;strokeWidth=1;fillColor=#eeeeee;align=left;verticalAlign=middle;spacingTop=-1;spacingLeft=3;spacingRight=3;rotatable=0;labelPosition=right;points=[];portConstraint=eastwest;strokeColor=#36393d;dashed=1;dashPattern=8 8;fontColor=light-dark(#000000,#000000);" parent="1" vertex="1">
          <mxGeometry x="53.5" y="452" width="721.5" height="8" as="geometry" />
        </mxCell>
        <mxCell id="Pph7oQHx4fXSbqczSDpd-18" value="[status != Active]" style="text;html=1;align=center;verticalAlign=middle;resizable=0;points=[];autosize=1;fillColor=none;fontSize=10;fontColor=#4D4D4D;" parent="1" vertex="1">
          <mxGeometry x="85" y="375" width="91" height="24" as="geometry" />
        </mxCell>
        <mxCell id="Pph7oQHx4fXSbqczSDpd-19" value="Error: Issuer not active" style="html=1;verticalAlign=bottom;endArrow=open;dashed=1;endSize=8;curved=0;rounded=0;fillColor=#eeeeee;strokeColor=#36393d;fontColor=light-dark(#000000,#000000);labelBackgroundColor=none;" parent="1" edge="1">
          <mxGeometry x="0.0023" relative="1" as="geometry">
            <mxPoint x="333.5" y="434" as="sourcePoint" />
            <mxPoint x="91.31034482758616" y="434" as="targetPoint" />
            <mxPoint as="offset" />
          </mxGeometry>
        </mxCell>
        <mxCell id="Pph7oQHx4fXSbqczSDpd-20" value="[else]" style="text;html=1;align=center;verticalAlign=middle;resizable=0;points=[];autosize=1;fillColor=none;fontSize=10;fontColor=#4D4D4D;" parent="1" vertex="1">
          <mxGeometry x="85" y="455" width="42" height="24" as="geometry" />
        </mxCell>
        <mxCell id="Pph7oQHx4fXSbqczSDpd-23" value="&lt;span class=&quot;notion-enable-hover&quot; data-token-index=&quot;0&quot; style=&quot;font-weight:600&quot;&gt;Issuing a New Certificate&lt;/span&gt;" style="shape=umlFrame;whiteSpace=wrap;html=1;pointerEvents=0;width=195;height=27;fillColor=#eeeeee;strokeColor=#36393d;fontColor=light-dark(#000000,#000000);" parent="1" vertex="1">
          <mxGeometry x="18" y="17" width="800" height="668" as="geometry" />
        </mxCell>
        <mxCell id="Pph7oQHx4fXSbqczSDpd-26" value="alt" style="shape=umlFrame;whiteSpace=wrap;html=1;pointerEvents=0;width=32;height=26;fillColor=#eeeeee;strokeColor=#36393d;fontColor=light-dark(#000000,#000000);" parent="1" vertex="1">
          <mxGeometry x="34" y="231" width="753" height="422" as="geometry" />
        </mxCell>
        <mxCell id="Pph7oQHx4fXSbqczSDpd-27" value="" style="line;strokeWidth=1;fillColor=#eeeeee;align=left;verticalAlign=middle;spacingTop=-1;spacingLeft=3;spacingRight=3;rotatable=0;labelPosition=right;points=[];portConstraint=eastwest;strokeColor=#36393d;dashed=1;dashPattern=8 8;fontColor=light-dark(#000000,#000000);" parent="1" vertex="1">
          <mxGeometry x="36" y="305" width="753" height="8" as="geometry" />
        </mxCell>
        <mxCell id="Pph7oQHx4fXSbqczSDpd-28" value="[else]" style="text;align=center;verticalAlign=middle;resizable=0;points=[];autosize=1;fillColor=none;labelBorderColor=none;fontSize=10;fontColor=#4D4D4D;" parent="1" vertex="1">
          <mxGeometry x="85" y="307" width="42" height="24" as="geometry" />
        </mxCell>
        <mxCell id="Pph7oQHx4fXSbqczSDpd-29" value="[not a verified Issuer]" style="text;align=center;verticalAlign=middle;resizable=0;points=[];autosize=1;fillColor=none;html=1;fontSize=10;fontColor=#4D4D4D;" parent="1" vertex="1">
          <mxGeometry x="85" y="231" width="111" height="24" as="geometry" />
        </mxCell>
        <mxCell id="Pph7oQHx4fXSbqczSDpd-31" value="revert" style="html=1;verticalAlign=bottom;endArrow=open;dashed=1;endSize=8;curved=0;rounded=0;strokeColor=light-dark(#000000,#000000);labelBackgroundColor=none;fontColor=light-dark(#000000,#000000);" parent="1" target="Pph7oQHx4fXSbqczSDpd-2" edge="1">
          <mxGeometry relative="1" as="geometry">
            <mxPoint x="334" y="287" as="sourcePoint" />
            <mxPoint x="254" y="287" as="targetPoint" />
          </mxGeometry>
        </mxCell>
        <mxCell id="Pph7oQHx4fXSbqczSDpd-33" value="verifyRole(ISSUER_ROLE)" style="html=1;verticalAlign=bottom;endArrow=block;curved=0;rounded=0;strokeColor=light-dark(#000000,#000000);labelBackgroundColor=none;fontColor=light-dark(#000000,#000000);" parent="1" target="Pph7oQHx4fXSbqczSDpd-35" edge="1">
          <mxGeometry width="80" relative="1" as="geometry">
            <mxPoint x="348" y="172" as="sourcePoint" />
            <mxPoint x="428" y="172" as="targetPoint" />
          </mxGeometry>
        </mxCell>
        <mxCell id="Pph7oQHx4fXSbqczSDpd-38" value="return" style="html=1;verticalAlign=bottom;endArrow=open;dashed=1;endSize=8;curved=0;rounded=0;strokeColor=light-dark(#000000,#000000);labelBackgroundColor=none;fontColor=light-dark(#000000,#000000);" parent="1" target="Pph7oQHx4fXSbqczSDpd-10" edge="1">
          <mxGeometry relative="1" as="geometry">
            <mxPoint x="601" y="201" as="sourcePoint" />
            <mxPoint x="521" y="201" as="targetPoint" />
          </mxGeometry>
        </mxCell>
        <mxCell id="Pph7oQHx4fXSbqczSDpd-39" value="issuer: Issuer" style="text;html=1;align=center;verticalAlign=middle;resizable=0;points=[];autosize=1;strokeColor=none;fillColor=none;labelBackgroundColor=default;" parent="1" vertex="1">
          <mxGeometry x="47.5" y="103" width="89" height="26" as="geometry" />
        </mxCell>
        <mxCell id="7d_uYu74Ha6h3CcS3V6C-4" value="" style="html=1;points=[[0,0,0,0,5],[0,1,0,0,-5],[1,0,0,0,5],[1,1,0,0,-5]];perimeter=orthogonalPerimeter;outlineConnect=0;targetShapes=umlLifeline;portConstraint=eastwest;newEdgeStyle={&quot;curved&quot;:0,&quot;rounded&quot;:0};fillColor=#eeeeee;strokeColor=#36393d;" parent="1" vertex="1">
          <mxGeometry x="343" y="502" width="10" height="40" as="geometry" />
        </mxCell>
        <mxCell id="7d_uYu74Ha6h3CcS3V6C-6" value="Certificate added successfully" style="html=1;verticalAlign=bottom;endArrow=open;dashed=1;endSize=8;curved=0;rounded=0;labelBackgroundColor=none;fontColor=light-dark(#000000,#000000);strokeColor=light-dark(#000000,#000000);" parent="1" edge="1">
          <mxGeometry x="-0.0013" relative="1" as="geometry">
            <mxPoint x="333" y="612" as="sourcePoint" />
            <mxPoint x="91.16666666666652" y="612" as="targetPoint" />
            <mxPoint as="offset" />
          </mxGeometry>
        </mxCell>
        <mxCell id="7d_uYu74Ha6h3CcS3V6C-7" value=":ERC721" style="shape=umlLifeline;perimeter=lifelinePerimeter;whiteSpace=wrap;html=1;container=1;dropTarget=0;collapsible=0;recursiveResize=0;outlineConnect=0;portConstraint=eastwest;newEdgeStyle={&quot;curved&quot;:0,&quot;rounded&quot;:0};fillColor=#eeeeee;strokeColor=#36393d;fontColor=light-dark(#000000,#000000);" parent="1" vertex="1">
          <mxGeometry x="698" y="66" width="100" height="600" as="geometry" />
        </mxCell>
        <mxCell id="7d_uYu74Ha6h3CcS3V6C-12" value="" style="html=1;points=[[0,0,0,0,5],[0,1,0,0,-5],[1,0,0,0,5],[1,1,0,0,-5]];perimeter=orthogonalPerimeter;outlineConnect=0;targetShapes=umlLifeline;portConstraint=eastwest;newEdgeStyle={&quot;curved&quot;:0,&quot;rounded&quot;:0};fillColor=#eeeeee;strokeColor=#36393d;fontColor=light-dark(#000000,#000000);" parent="7d_uYu74Ha6h3CcS3V6C-7" vertex="1">
          <mxGeometry x="43.5" y="482" width="13" height="51" as="geometry" />
        </mxCell>
        <mxCell id="7d_uYu74Ha6h3CcS3V6C-11" value="_mint(address, _certifcateId)" style="html=1;verticalAlign=bottom;endArrow=block;curved=0;rounded=0;strokeColor=light-dark(#000000,#000000);labelBackgroundColor=none;fontColor=light-dark(#000000,#000000);" parent="1" target="7d_uYu74Ha6h3CcS3V6C-12" edge="1">
          <mxGeometry x="-0.1254" width="80" relative="1" as="geometry">
            <mxPoint x="349" y="559" as="sourcePoint" />
            <mxPoint x="429" y="559" as="targetPoint" />
            <mxPoint as="offset" />
          </mxGeometry>
        </mxCell>
        <mxCell id="7d_uYu74Ha6h3CcS3V6C-13" value="return" style="html=1;verticalAlign=bottom;endArrow=open;dashed=1;endSize=8;curved=0;rounded=0;labelBackgroundColor=none;fontColor=light-dark(#000000,#000000);strokeColor=light-dark(#000000,#000000);" parent="1" edge="1">
          <mxGeometry relative="1" as="geometry">
            <mxPoint x="741" y="584" as="sourcePoint" />
            <mxPoint x="347.5" y="584" as="targetPoint" />
          </mxGeometry>
        </mxCell>
        <mxCell id="7d_uYu74Ha6h3CcS3V6C-5" value="_storeCertificateData(&lt;span style=&quot;text-align: center;&quot;&gt;_recipient, _reName, cTitle)&lt;/span&gt;" style="html=1;align=left;spacingLeft=2;endArrow=block;rounded=0;edgeStyle=orthogonalEdgeStyle;curved=0;rounded=0;fillColor=#eeeeee;strokeColor=#36393d;labelBackgroundColor=none;fontColor=light-dark(#000000,#000000);verticalAlign=middle;" parent="1" target="7d_uYu74Ha6h3CcS3V6C-4" edge="1">
          <mxGeometry x="0.0061" relative="1" as="geometry">
            <mxPoint x="348" y="482" as="sourcePoint" />
            <Array as="points">
              <mxPoint x="378" y="512" />
            </Array>
            <mxPoint as="offset" />
          </mxGeometry>
        </mxCell>
      </root>
    </mxGraphModel>
  </diagram>
</mxfile>
